<?xml version="1.0" encoding="utf-8" standalone="no"?>
<!DOCTYPE svg PUBLIC "-//W3C//DTD SVG 1.1//EN"
  "http://www.w3.org/Graphics/SVG/1.1/DTD/svg11.dtd">
<!-- Created with matplotlib (https://matplotlib.org/) -->
<svg height="345.6pt" version="1.1" viewBox="0 0 460.8 345.6" width="460.8pt" xmlns="http://www.w3.org/2000/svg" xmlns:xlink="http://www.w3.org/1999/xlink">
 <defs>
  <style type="text/css">
*{stroke-linecap:butt;stroke-linejoin:round;}
  </style>
 </defs>
 <g id="figure_1">
  <g id="patch_1">
   <path d="M 0 345.6 
L 460.8 345.6 
L 460.8 0 
L 0 0 
z
" style="fill:#ffffff;"/>
  </g>
  <g id="axes_1">
   <g id="patch_2">
    <path d="M 57.6 307.584 
L 414.72 307.584 
L 414.72 41.472 
L 57.6 41.472 
z
" style="fill:#ffffff;"/>
   </g>
   <g id="matplotlib.axis_1">
    <g id="xtick_1">
     <g id="line2d_1">
      <defs>
       <path d="M 0 0 
L 0 3.5 
" id="m9332f13fbd" style="stroke:#000000;stroke-width:0.8;"/>
      </defs>
      <g>
       <use style="stroke:#000000;stroke-width:0.8;" x="73.832727" xlink:href="#m9332f13fbd" y="307.584"/>
      </g>
     </g>
     <g id="text_1">
      <!-- 0 -->
      <defs>
       <path d="M 31.78125 66.40625 
Q 24.171875 66.40625 20.328125 58.90625 
Q 16.5 51.421875 16.5 36.375 
Q 16.5 21.390625 20.328125 13.890625 
Q 24.171875 6.390625 31.78125 6.390625 
Q 39.453125 6.390625 43.28125 13.890625 
Q 47.125 21.390625 47.125 36.375 
Q 47.125 51.421875 43.28125 58.90625 
Q 39.453125 66.40625 31.78125 66.40625 
z
M 31.78125 74.21875 
Q 44.046875 74.21875 50.515625 64.515625 
Q 56.984375 54.828125 56.984375 36.375 
Q 56.984375 17.96875 50.515625 8.265625 
Q 44.046875 -1.421875 31.78125 -1.421875 
Q 19.53125 -1.421875 13.0625 8.265625 
Q 6.59375 17.96875 6.59375 36.375 
Q 6.59375 54.828125 13.0625 64.515625 
Q 19.53125 74.21875 31.78125 74.21875 
z
" id="DejaVuSans-48"/>
      </defs>
      <g transform="translate(70.651477 322.182437)scale(0.1 -0.1)">
       <use xlink:href="#DejaVuSans-48"/>
      </g>
     </g>
    </g>
    <g id="xtick_2">
     <g id="line2d_2">
      <g>
       <use style="stroke:#000000;stroke-width:0.8;" x="138.763636" xlink:href="#m9332f13fbd" y="307.584"/>
      </g>
     </g>
     <g id="text_2">
      <!-- 5 -->
      <defs>
       <path d="M 10.796875 72.90625 
L 49.515625 72.90625 
L 49.515625 64.59375 
L 19.828125 64.59375 
L 19.828125 46.734375 
Q 21.96875 47.46875 24.109375 47.828125 
Q 26.265625 48.1875 28.421875 48.1875 
Q 40.625 48.1875 47.75 41.5 
Q 54.890625 34.8125 54.890625 23.390625 
Q 54.890625 11.625 47.5625 5.09375 
Q 40.234375 -1.421875 26.90625 -1.421875 
Q 22.3125 -1.421875 17.546875 -0.640625 
Q 12.796875 0.140625 7.71875 1.703125 
L 7.71875 11.625 
Q 12.109375 9.234375 16.796875 8.0625 
Q 21.484375 6.890625 26.703125 6.890625 
Q 35.15625 6.890625 40.078125 11.328125 
Q 45.015625 15.765625 45.015625 23.390625 
Q 45.015625 31 40.078125 35.4375 
Q 35.15625 39.890625 26.703125 39.890625 
Q 22.75 39.890625 18.8125 39.015625 
Q 14.890625 38.140625 10.796875 36.28125 
z
" id="DejaVuSans-53"/>
      </defs>
      <g transform="translate(135.582386 322.182437)scale(0.1 -0.1)">
       <use xlink:href="#DejaVuSans-53"/>
      </g>
     </g>
    </g>
    <g id="xtick_3">
     <g id="line2d_3">
      <g>
       <use style="stroke:#000000;stroke-width:0.8;" x="203.694545" xlink:href="#m9332f13fbd" y="307.584"/>
      </g>
     </g>
     <g id="text_3">
      <!-- 10 -->
      <defs>
       <path d="M 12.40625 8.296875 
L 28.515625 8.296875 
L 28.515625 63.921875 
L 10.984375 60.40625 
L 10.984375 69.390625 
L 28.421875 72.90625 
L 38.28125 72.90625 
L 38.28125 8.296875 
L 54.390625 8.296875 
L 54.390625 0 
L 12.40625 0 
z
" id="DejaVuSans-49"/>
      </defs>
      <g transform="translate(197.332045 322.182437)scale(0.1 -0.1)">
       <use xlink:href="#DejaVuSans-49"/>
       <use x="63.623047" xlink:href="#DejaVuSans-48"/>
      </g>
     </g>
    </g>
    <g id="xtick_4">
     <g id="line2d_4">
      <g>
       <use style="stroke:#000000;stroke-width:0.8;" x="268.625455" xlink:href="#m9332f13fbd" y="307.584"/>
      </g>
     </g>
     <g id="text_4">
      <!-- 15 -->
      <g transform="translate(262.262955 322.182437)scale(0.1 -0.1)">
       <use xlink:href="#DejaVuSans-49"/>
       <use x="63.623047" xlink:href="#DejaVuSans-53"/>
      </g>
     </g>
    </g>
    <g id="xtick_5">
     <g id="line2d_5">
      <g>
       <use style="stroke:#000000;stroke-width:0.8;" x="333.556364" xlink:href="#m9332f13fbd" y="307.584"/>
      </g>
     </g>
     <g id="text_5">
      <!-- 20 -->
      <defs>
       <path d="M 19.1875 8.296875 
L 53.609375 8.296875 
L 53.609375 0 
L 7.328125 0 
L 7.328125 8.296875 
Q 12.9375 14.109375 22.625 23.890625 
Q 32.328125 33.6875 34.8125 36.53125 
Q 39.546875 41.84375 41.421875 45.53125 
Q 43.3125 49.21875 43.3125 52.78125 
Q 43.3125 58.59375 39.234375 62.25 
Q 35.15625 65.921875 28.609375 65.921875 
Q 23.96875 65.921875 18.8125 64.3125 
Q 13.671875 62.703125 7.8125 59.421875 
L 7.8125 69.390625 
Q 13.765625 71.78125 18.9375 73 
Q 24.125 74.21875 28.421875 74.21875 
Q 39.75 74.21875 46.484375 68.546875 
Q 53.21875 62.890625 53.21875 53.421875 
Q 53.21875 48.921875 51.53125 44.890625 
Q 49.859375 40.875 45.40625 35.40625 
Q 44.1875 33.984375 37.640625 27.21875 
Q 31.109375 20.453125 19.1875 8.296875 
z
" id="DejaVuSans-50"/>
      </defs>
      <g transform="translate(327.193864 322.182437)scale(0.1 -0.1)">
       <use xlink:href="#DejaVuSans-50"/>
       <use x="63.623047" xlink:href="#DejaVuSans-48"/>
      </g>
     </g>
    </g>
    <g id="xtick_6">
     <g id="line2d_6">
      <g>
       <use style="stroke:#000000;stroke-width:0.8;" x="398.487273" xlink:href="#m9332f13fbd" y="307.584"/>
      </g>
     </g>
     <g id="text_6">
      <!-- 25 -->
      <g transform="translate(392.124773 322.182437)scale(0.1 -0.1)">
       <use xlink:href="#DejaVuSans-50"/>
       <use x="63.623047" xlink:href="#DejaVuSans-53"/>
      </g>
     </g>
    </g>
   </g>
   <g id="matplotlib.axis_2">
    <g id="ytick_1">
     <g id="line2d_7">
      <defs>
       <path d="M 0 0 
L -3.5 0 
" id="m2b913d3267" style="stroke:#000000;stroke-width:0.8;"/>
      </defs>
      <g>
       <use style="stroke:#000000;stroke-width:0.8;" x="57.6" xlink:href="#m2b913d3267" y="255.861555"/>
      </g>
     </g>
     <g id="text_7">
      <!-- 0.3 -->
      <defs>
       <path d="M 10.6875 12.40625 
L 21 12.40625 
L 21 0 
L 10.6875 0 
z
" id="DejaVuSans-46"/>
       <path d="M 40.578125 39.3125 
Q 47.65625 37.796875 51.625 33 
Q 55.609375 28.21875 55.609375 21.1875 
Q 55.609375 10.40625 48.1875 4.484375 
Q 40.765625 -1.421875 27.09375 -1.421875 
Q 22.515625 -1.421875 17.65625 -0.515625 
Q 12.796875 0.390625 7.625 2.203125 
L 7.625 11.71875 
Q 11.71875 9.328125 16.59375 8.109375 
Q 21.484375 6.890625 26.8125 6.890625 
Q 36.078125 6.890625 40.9375 10.546875 
Q 45.796875 14.203125 45.796875 21.1875 
Q 45.796875 27.640625 41.28125 31.265625 
Q 36.765625 34.90625 28.71875 34.90625 
L 20.21875 34.90625 
L 20.21875 43.015625 
L 29.109375 43.015625 
Q 36.375 43.015625 40.234375 45.921875 
Q 44.09375 48.828125 44.09375 54.296875 
Q 44.09375 59.90625 40.109375 62.90625 
Q 36.140625 65.921875 28.71875 65.921875 
Q 24.65625 65.921875 20.015625 65.03125 
Q 15.375 64.15625 9.8125 62.3125 
L 9.8125 71.09375 
Q 15.4375 72.65625 20.34375 73.4375 
Q 25.25 74.21875 29.59375 74.21875 
Q 40.828125 74.21875 47.359375 69.109375 
Q 53.90625 64.015625 53.90625 55.328125 
Q 53.90625 49.265625 50.4375 45.09375 
Q 46.96875 40.921875 40.578125 39.3125 
z
" id="DejaVuSans-51"/>
      </defs>
      <g transform="translate(34.696875 259.660774)scale(0.1 -0.1)">
       <use xlink:href="#DejaVuSans-48"/>
       <use x="63.623047" xlink:href="#DejaVuSans-46"/>
       <use x="95.410156" xlink:href="#DejaVuSans-51"/>
      </g>
     </g>
    </g>
    <g id="ytick_2">
     <g id="line2d_8">
      <g>
       <use style="stroke:#000000;stroke-width:0.8;" x="57.6" xlink:href="#m2b913d3267" y="202.392947"/>
      </g>
     </g>
     <g id="text_8">
      <!-- 0.4 -->
      <defs>
       <path d="M 37.796875 64.3125 
L 12.890625 25.390625 
L 37.796875 25.390625 
z
M 35.203125 72.90625 
L 47.609375 72.90625 
L 47.609375 25.390625 
L 58.015625 25.390625 
L 58.015625 17.1875 
L 47.609375 17.1875 
L 47.609375 0 
L 37.796875 0 
L 37.796875 17.1875 
L 4.890625 17.1875 
L 4.890625 26.703125 
z
" id="DejaVuSans-52"/>
      </defs>
      <g transform="translate(34.696875 206.192165)scale(0.1 -0.1)">
       <use xlink:href="#DejaVuSans-48"/>
       <use x="63.623047" xlink:href="#DejaVuSans-46"/>
       <use x="95.410156" xlink:href="#DejaVuSans-52"/>
      </g>
     </g>
    </g>
    <g id="ytick_3">
     <g id="line2d_9">
      <g>
       <use style="stroke:#000000;stroke-width:0.8;" x="57.6" xlink:href="#m2b913d3267" y="148.924338"/>
      </g>
     </g>
     <g id="text_9">
      <!-- 0.5 -->
      <g transform="translate(34.696875 152.723557)scale(0.1 -0.1)">
       <use xlink:href="#DejaVuSans-48"/>
       <use x="63.623047" xlink:href="#DejaVuSans-46"/>
       <use x="95.410156" xlink:href="#DejaVuSans-53"/>
      </g>
     </g>
    </g>
    <g id="ytick_4">
     <g id="line2d_10">
      <g>
       <use style="stroke:#000000;stroke-width:0.8;" x="57.6" xlink:href="#m2b913d3267" y="95.45573"/>
      </g>
     </g>
     <g id="text_10">
      <!-- 0.6 -->
      <defs>
       <path d="M 33.015625 40.375 
Q 26.375 40.375 22.484375 35.828125 
Q 18.609375 31.296875 18.609375 23.390625 
Q 18.609375 15.53125 22.484375 10.953125 
Q 26.375 6.390625 33.015625 6.390625 
Q 39.65625 6.390625 43.53125 10.953125 
Q 47.40625 15.53125 47.40625 23.390625 
Q 47.40625 31.296875 43.53125 35.828125 
Q 39.65625 40.375 33.015625 40.375 
z
M 52.59375 71.296875 
L 52.59375 62.3125 
Q 48.875 64.0625 45.09375 64.984375 
Q 41.3125 65.921875 37.59375 65.921875 
Q 27.828125 65.921875 22.671875 59.328125 
Q 17.53125 52.734375 16.796875 39.40625 
Q 19.671875 43.65625 24.015625 45.921875 
Q 28.375 48.1875 33.59375 48.1875 
Q 44.578125 48.1875 50.953125 41.515625 
Q 57.328125 34.859375 57.328125 23.390625 
Q 57.328125 12.15625 50.6875 5.359375 
Q 44.046875 -1.421875 33.015625 -1.421875 
Q 20.359375 -1.421875 13.671875 8.265625 
Q 6.984375 17.96875 6.984375 36.375 
Q 6.984375 53.65625 15.1875 63.9375 
Q 23.390625 74.21875 37.203125 74.21875 
Q 40.921875 74.21875 44.703125 73.484375 
Q 48.484375 72.75 52.59375 71.296875 
z
" id="DejaVuSans-54"/>
      </defs>
      <g transform="translate(34.696875 99.254949)scale(0.1 -0.1)">
       <use xlink:href="#DejaVuSans-48"/>
       <use x="63.623047" xlink:href="#DejaVuSans-46"/>
       <use x="95.410156" xlink:href="#DejaVuSans-54"/>
      </g>
     </g>
    </g>
    <g id="ytick_5">
     <g id="line2d_11">
      <g>
       <use style="stroke:#000000;stroke-width:0.8;" x="57.6" xlink:href="#m2b913d3267" y="41.987122"/>
      </g>
     </g>
     <g id="text_11">
      <!-- 0.7 -->
      <defs>
       <path d="M 8.203125 72.90625 
L 55.078125 72.90625 
L 55.078125 68.703125 
L 28.609375 0 
L 18.3125 0 
L 43.21875 64.59375 
L 8.203125 64.59375 
z
" id="DejaVuSans-55"/>
      </defs>
      <g transform="translate(34.696875 45.78634)scale(0.1 -0.1)">
       <use xlink:href="#DejaVuSans-48"/>
       <use x="63.623047" xlink:href="#DejaVuSans-46"/>
       <use x="95.410156" xlink:href="#DejaVuSans-55"/>
      </g>
     </g>
    </g>
   </g>
   <g id="line2d_12">
    <path clip-path="url(#p4e5b8f2836)" d="M 73.832727 236.765624 
L 75.644336 234.196384 
L 77.261148 232.2754 
L 78.728616 230.864977 
L 80.079206 229.866004 
L 81.332397 229.20767 
L 82.520657 228.829953 
L 83.663464 228.69766 
L 84.786791 228.790678 
L 85.923104 229.110166 
L 87.091884 229.673653 
L 88.319103 230.517456 
L 89.630733 231.69696 
L 91.046256 233.278342 
L 92.598135 235.357842 
L 94.318839 238.050229 
L 96.260312 241.516751 
L 98.539432 246.062219 
L 101.435409 252.367817 
L 112.181689 276.263561 
L 114.655606 280.952221 
L 116.843822 284.637674 
L 118.824254 287.551836 
L 120.655342 289.862204 
L 122.356566 291.661525 
L 123.953898 293.036714 
L 125.466819 294.052846 
L 126.908314 294.758677 
L 128.297863 295.195306 
L 129.654946 295.390472 
L 130.999043 295.359114 
L 132.349633 295.103805 
L 133.726196 294.614989 
L 135.148211 293.871008 
L 136.635159 292.837989 
L 138.206518 291.469741 
L 139.881769 289.707881 
L 141.673898 287.491234 
L 143.608878 284.734399 
L 145.725668 281.319705 
L 148.082707 277.081327 
L 150.80986 271.700404 
L 154.290226 264.30612 
L 163.159965 245.228764 
L 165.672842 240.488489 
L 167.770152 236.989065 
L 169.594747 234.360125 
L 171.224546 232.386443 
L 172.705 230.93056 
L 174.062083 229.897505 
L 175.321768 229.209337 
L 176.510027 228.807099 
L 177.652834 228.651219 
L 178.776161 228.721245 
L 179.905982 229.015534 
L 181.068268 229.551163 
L 182.288994 230.364135 
L 183.587638 231.503241 
L 184.990174 233.038331 
L 186.522574 235.056523 
L 188.217304 237.669072 
L 190.132805 241.046873 
L 192.366472 245.457755 
L 195.165051 251.508284 
L 200.242749 263.140931 
L 204.333478 272.243763 
L 207.125563 277.928533 
L 209.495589 282.265759 
L 211.605886 285.679166 
L 213.534372 288.389129 
L 215.320008 290.526306 
L 216.988766 292.186178 
L 218.560125 293.442828 
L 220.047073 294.35359 
L 221.469088 294.968849 
L 222.845651 295.325255 
L 224.196241 295.446275 
L 225.540337 295.342724 
L 226.897421 295.013144 
L 228.28697 294.443955 
L 229.728465 293.609437 
L 231.241385 292.471586 
L 232.845211 290.980056 
L 234.552928 289.080262 
L 236.390509 286.693454 
L 238.377435 283.737915 
L 240.56565 280.071339 
L 243.020088 275.509663 
L 245.916064 269.636744 
L 249.928875 260.944665 
L 256.259765 247.241305 
L 258.986918 241.899054 
L 261.201106 238.03165 
L 263.110113 235.128315 
L 264.804843 232.941625 
L 266.33075 231.322794 
L 267.726793 230.155198 
L 269.018944 229.356199 
L 270.226683 228.86362 
L 271.382476 228.628038 
L 272.512297 228.623931 
L 273.635624 228.842772 
L 274.784924 229.296032 
L 275.98617 230.014738 
L 277.258841 231.0432 
L 278.622417 232.43929 
L 280.109365 234.29071 
L 281.745656 236.695728 
L 283.576745 239.796353 
L 285.687041 243.82551 
L 288.24537 249.215009 
L 291.920533 257.533353 
L 298.147532 271.627903 
L 300.991563 277.478826 
L 303.387561 281.917319 
L 305.517338 285.410501 
L 307.465304 288.190706 
L 309.263926 290.381156 
L 310.939177 292.081424 
L 312.51703 293.374294 
L 314.01047 294.317261 
L 315.438979 294.961078 
L 316.815542 295.341531 
L 318.166132 295.485855 
L 319.503735 295.406061 
L 320.854325 295.102166 
L 322.237381 294.560852 
L 323.672383 293.756646 
L 325.17881 292.651764 
L 326.769649 291.20249 
L 328.46438 289.350006 
L 330.282482 287.024428 
L 332.249928 284.136973 
L 334.41217 280.555887 
L 336.834141 276.098376 
L 339.665186 270.401159 
L 343.450733 262.239142 
L 350.638729 246.668384 
L 353.300949 241.492376 
L 355.482672 237.717181 
L 357.372199 234.876127 
L 359.04745 232.743958 
L 360.56037 231.164996 
L 361.943426 230.031398 
L 363.229084 229.25731 
L 364.436823 228.784711 
L 365.586123 228.569547 
L 366.70945 228.58337 
L 367.832777 228.819837 
L 368.982078 229.291351 
L 370.183323 230.029201 
L 371.462488 231.083855 
L 372.832557 232.510013 
L 374.325998 234.395578 
L 375.975276 236.848967 
L 377.825844 240.016047 
L 379.962114 244.132732 
L 382.565895 249.659969 
L 386.416375 258.41979 
L 392.149889 271.409163 
L 395.019893 277.339576 
L 397.428878 281.823421 
L 398.487273 283.625296 
L 398.487273 283.625296 
" style="fill:none;stroke:#1f77b4;stroke-linecap:square;stroke-width:1.5;"/>
   </g>
   <g id="line2d_13">
    <path clip-path="url(#p4e5b8f2836)" d="M 73.832727 68.721426 
L 75.852119 73.401742 
L 78.150719 79.313052 
L 80.942804 87.141728 
L 85.39066 100.386149 
L 89.799557 113.27508 
L 92.416325 120.249782 
L 94.565581 125.369728 
L 96.435629 129.271702 
L 98.104387 132.259407 
L 99.617307 134.530066 
L 101.000363 136.220722 
L 102.279527 137.445097 
L 103.467787 138.283947 
L 104.584621 138.807264 
L 105.649509 139.066169 
L 106.694918 139.093058 
L 107.740326 138.896716 
L 108.818201 138.46387 
L 109.948021 137.764161 
L 111.149267 136.751641 
L 112.447911 135.356959 
L 113.863433 133.498543 
L 115.415313 131.080946 
L 117.136017 127.973537 
L 119.070996 124.001675 
L 121.291678 118.914306 
L 123.966885 112.200367 
L 127.655034 102.285575 
L 135.148211 82.035526 
L 138.037694 74.950027 
L 140.453172 69.594698 
L 142.576456 65.409105 
L 144.485463 62.120188 
L 146.225646 59.550414 
L 147.822978 57.575811 
L 149.296939 56.096722 
L 150.660515 55.033 
L 151.93968 54.309223 
L 153.147419 53.874996 
L 154.309706 53.689623 
L 155.446019 53.73175 
L 156.582333 53.996752 
L 157.744619 54.499669 
L 158.945865 55.266258 
L 160.212043 56.345112 
L 161.55614 57.791934 
L 162.991142 59.673999 
L 164.536528 62.080468 
L 166.205286 65.103645 
L 168.029881 68.88371 
L 170.055766 73.609634 
L 172.373846 79.605358 
L 175.198397 87.563886 
L 179.905982 101.621628 
L 184.029177 113.644293 
L 186.619972 120.530276 
L 188.749749 125.585742 
L 190.60681 129.444976 
L 192.269074 132.407116 
L 193.775501 134.655446 
L 195.158557 136.334206 
L 196.431229 137.541393 
L 197.612995 138.366428 
L 198.729829 138.88132 
L 199.794717 139.13185 
L 200.840126 139.150248 
L 201.885534 138.9452 
L 202.963409 138.503208 
L 204.093229 137.793785 
L 205.300968 136.764602 
L 206.606106 135.349353 
L 208.021628 133.475638 
L 209.580001 131.030782 
L 211.307197 127.891919 
L 213.248671 123.884571 
L 215.482338 118.742524 
L 218.177025 111.951604 
L 221.930107 101.830503 
L 229.144075 82.301661 
L 232.053038 75.136798 
L 234.481502 69.725386 
L 236.611279 65.503051 
L 238.526779 62.181707 
L 240.273455 59.583816 
L 241.870788 57.592646 
L 243.344749 56.098078 
L 244.714818 55.015533 
L 245.993983 54.279597 
L 247.208215 53.832223 
L 248.370502 53.637257 
L 249.506815 53.67016 
L 250.643129 53.92613 
L 251.798922 54.416634 
L 253.000168 55.172865 
L 254.259853 56.235011 
L 255.597456 57.662025 
L 257.025965 59.521077 
L 258.564858 61.901275 
L 260.227123 64.895145 
L 262.045225 68.643232 
L 264.058123 73.319463 
L 266.356723 79.244638 
L 269.142315 87.07427 
L 273.564198 100.276467 
L 278.005561 113.302061 
L 280.622329 120.299053 
L 282.771585 125.436009 
L 284.641633 129.351428 
L 286.310391 132.349839 
L 287.823311 134.629018 
L 289.206367 136.326398 
L 290.485532 137.556041 
L 291.673791 138.398942 
L 292.790625 138.925313 
L 293.855513 139.186444 
L 294.900922 139.214866 
L 295.94633 139.019415 
L 297.017712 138.590123 
L 298.147532 137.8914 
L 299.348778 136.8791 
L 300.647422 135.483711 
L 302.056451 133.632748 
L 303.608331 131.213467 
L 305.322541 128.115098 
L 307.251028 124.153088 
L 309.465216 119.075297 
L 312.127436 112.385393 
L 315.78312 102.541281 
L 323.412654 81.872878 
L 326.289151 74.810862 
L 328.698136 69.464417 
L 330.814926 65.287639 
L 332.723933 61.996124 
L 334.457623 59.434181 
L 336.048462 57.465588 
L 337.51593 55.990568 
L 338.879506 54.924595 
L 340.158671 54.199336 
L 341.36641 53.764281 
L 342.528696 53.578645 
L 343.66501 53.621032 
L 344.801323 53.886817 
L 345.96361 54.391086 
L 347.164856 55.159668 
L 348.431034 56.241291 
L 349.77513 57.691817 
L 351.210132 59.578716 
L 352.749026 61.980469 
L 354.417783 65.00988 
L 356.242378 68.798272 
L 358.268263 73.535256 
L 360.57985 79.528237 
L 363.397908 87.487316 
L 368.06004 101.446505 
L 372.222195 113.626433 
L 374.81299 120.538916 
L 376.949259 125.630496 
L 378.812814 129.518568 
L 380.475078 132.492357 
L 381.981506 134.750125 
L 383.364562 136.436523 
L 384.637233 137.649817 
L 385.818999 138.479699 
L 386.92934 138.996156 
L 387.994228 139.251088 
L 389.033143 139.273699 
L 390.078552 139.073023 
L 391.149933 138.638144 
L 392.279754 137.933317 
L 393.481 136.91433 
L 394.779644 135.511543 
L 396.195166 133.643076 
L 397.747046 131.213139 
L 398.487273 129.922504 
L 398.487273 129.922504 
" style="fill:none;stroke:#ff7f0e;stroke-linecap:square;stroke-width:1.5;"/>
   </g>
   <g id="line2d_14">
    <path clip-path="url(#p4e5b8f2836)" d="M 73.832727 263.499928 
L 398.487273 263.499928 
L 398.487273 263.499928 
" style="fill:none;stroke:#2ca02c;stroke-linecap:square;stroke-width:1.5;"/>
   </g>
   <g id="line2d_15">
    <path clip-path="url(#p4e5b8f2836)" d="M 73.832727 95.45573 
L 398.487273 95.45573 
L 398.487273 95.45573 
" style="fill:none;stroke:#d62728;stroke-linecap:square;stroke-width:1.5;"/>
   </g>
   <g id="patch_3">
    <path d="M 57.6 307.584 
L 57.6 41.472 
" style="fill:none;stroke:#000000;stroke-linecap:square;stroke-linejoin:miter;stroke-width:0.8;"/>
   </g>
   <g id="patch_4">
    <path d="M 414.72 307.584 
L 414.72 41.472 
" style="fill:none;stroke:#000000;stroke-linecap:square;stroke-linejoin:miter;stroke-width:0.8;"/>
   </g>
   <g id="patch_5">
    <path d="M 57.6 307.584 
L 414.72 307.584 
" style="fill:none;stroke:#000000;stroke-linecap:square;stroke-linejoin:miter;stroke-width:0.8;"/>
   </g>
   <g id="patch_6">
    <path d="M 57.6 41.472 
L 414.72 41.472 
" style="fill:none;stroke:#000000;stroke-linecap:square;stroke-linejoin:miter;stroke-width:0.8;"/>
   </g>
   <g id="legend_1">
    <g id="patch_7">
     <path d="M 303.30125 205.38425 
L 407.72 205.38425 
Q 409.72 205.38425 409.72 203.38425 
L 409.72 145.67175 
Q 409.72 143.67175 407.72 143.67175 
L 303.30125 143.67175 
Q 301.30125 143.67175 301.30125 145.67175 
L 301.30125 203.38425 
Q 301.30125 205.38425 303.30125 205.38425 
z
" style="fill:#ffffff;opacity:0.8;stroke:#cccccc;stroke-linejoin:miter;"/>
    </g>
    <g id="line2d_16">
     <path d="M 305.30125 151.770188 
L 325.30125 151.770188 
" style="fill:none;stroke:#1f77b4;stroke-linecap:square;stroke-width:1.5;"/>
    </g>
    <g id="line2d_17"/>
    <g id="text_12">
     <!-- Mutualists -->
     <defs>
      <path d="M 9.8125 72.90625 
L 24.515625 72.90625 
L 43.109375 23.296875 
L 61.8125 72.90625 
L 76.515625 72.90625 
L 76.515625 0 
L 66.890625 0 
L 66.890625 64.015625 
L 48.09375 14.015625 
L 38.1875 14.015625 
L 19.390625 64.015625 
L 19.390625 0 
L 9.8125 0 
z
" id="DejaVuSans-77"/>
      <path d="M 8.5 21.578125 
L 8.5 54.6875 
L 17.484375 54.6875 
L 17.484375 21.921875 
Q 17.484375 14.15625 20.5 10.265625 
Q 23.53125 6.390625 29.59375 6.390625 
Q 36.859375 6.390625 41.078125 11.03125 
Q 45.3125 15.671875 45.3125 23.6875 
L 45.3125 54.6875 
L 54.296875 54.6875 
L 54.296875 0 
L 45.3125 0 
L 45.3125 8.40625 
Q 42.046875 3.421875 37.71875 1 
Q 33.40625 -1.421875 27.6875 -1.421875 
Q 18.265625 -1.421875 13.375 4.4375 
Q 8.5 10.296875 8.5 21.578125 
z
M 31.109375 56 
z
" id="DejaVuSans-117"/>
      <path d="M 18.3125 70.21875 
L 18.3125 54.6875 
L 36.8125 54.6875 
L 36.8125 47.703125 
L 18.3125 47.703125 
L 18.3125 18.015625 
Q 18.3125 11.328125 20.140625 9.421875 
Q 21.96875 7.515625 27.59375 7.515625 
L 36.8125 7.515625 
L 36.8125 0 
L 27.59375 0 
Q 17.1875 0 13.234375 3.875 
Q 9.28125 7.765625 9.28125 18.015625 
L 9.28125 47.703125 
L 2.6875 47.703125 
L 2.6875 54.6875 
L 9.28125 54.6875 
L 9.28125 70.21875 
z
" id="DejaVuSans-116"/>
      <path d="M 34.28125 27.484375 
Q 23.390625 27.484375 19.1875 25 
Q 14.984375 22.515625 14.984375 16.5 
Q 14.984375 11.71875 18.140625 8.90625 
Q 21.296875 6.109375 26.703125 6.109375 
Q 34.1875 6.109375 38.703125 11.40625 
Q 43.21875 16.703125 43.21875 25.484375 
L 43.21875 27.484375 
z
M 52.203125 31.203125 
L 52.203125 0 
L 43.21875 0 
L 43.21875 8.296875 
Q 40.140625 3.328125 35.546875 0.953125 
Q 30.953125 -1.421875 24.3125 -1.421875 
Q 15.921875 -1.421875 10.953125 3.296875 
Q 6 8.015625 6 15.921875 
Q 6 25.140625 12.171875 29.828125 
Q 18.359375 34.515625 30.609375 34.515625 
L 43.21875 34.515625 
L 43.21875 35.40625 
Q 43.21875 41.609375 39.140625 45 
Q 35.0625 48.390625 27.6875 48.390625 
Q 23 48.390625 18.546875 47.265625 
Q 14.109375 46.140625 10.015625 43.890625 
L 10.015625 52.203125 
Q 14.9375 54.109375 19.578125 55.046875 
Q 24.21875 56 28.609375 56 
Q 40.484375 56 46.34375 49.84375 
Q 52.203125 43.703125 52.203125 31.203125 
z
" id="DejaVuSans-97"/>
      <path d="M 9.421875 75.984375 
L 18.40625 75.984375 
L 18.40625 0 
L 9.421875 0 
z
" id="DejaVuSans-108"/>
      <path d="M 9.421875 54.6875 
L 18.40625 54.6875 
L 18.40625 0 
L 9.421875 0 
z
M 9.421875 75.984375 
L 18.40625 75.984375 
L 18.40625 64.59375 
L 9.421875 64.59375 
z
" id="DejaVuSans-105"/>
      <path d="M 44.28125 53.078125 
L 44.28125 44.578125 
Q 40.484375 46.53125 36.375 47.5 
Q 32.28125 48.484375 27.875 48.484375 
Q 21.1875 48.484375 17.84375 46.4375 
Q 14.5 44.390625 14.5 40.28125 
Q 14.5 37.15625 16.890625 35.375 
Q 19.28125 33.59375 26.515625 31.984375 
L 29.59375 31.296875 
Q 39.15625 29.25 43.1875 25.515625 
Q 47.21875 21.78125 47.21875 15.09375 
Q 47.21875 7.46875 41.1875 3.015625 
Q 35.15625 -1.421875 24.609375 -1.421875 
Q 20.21875 -1.421875 15.453125 -0.5625 
Q 10.6875 0.296875 5.421875 2 
L 5.421875 11.28125 
Q 10.40625 8.6875 15.234375 7.390625 
Q 20.0625 6.109375 24.8125 6.109375 
Q 31.15625 6.109375 34.5625 8.28125 
Q 37.984375 10.453125 37.984375 14.40625 
Q 37.984375 18.0625 35.515625 20.015625 
Q 33.0625 21.96875 24.703125 23.78125 
L 21.578125 24.515625 
Q 13.234375 26.265625 9.515625 29.90625 
Q 5.8125 33.546875 5.8125 39.890625 
Q 5.8125 47.609375 11.28125 51.796875 
Q 16.75 56 26.8125 56 
Q 31.78125 56 36.171875 55.265625 
Q 40.578125 54.546875 44.28125 53.078125 
z
" id="DejaVuSans-115"/>
     </defs>
     <g transform="translate(333.30125 155.270188)scale(0.1 -0.1)">
      <use xlink:href="#DejaVuSans-77"/>
      <use x="86.279297" xlink:href="#DejaVuSans-117"/>
      <use x="149.658203" xlink:href="#DejaVuSans-116"/>
      <use x="188.867188" xlink:href="#DejaVuSans-117"/>
      <use x="252.246094" xlink:href="#DejaVuSans-97"/>
      <use x="313.525391" xlink:href="#DejaVuSans-108"/>
      <use x="341.308594" xlink:href="#DejaVuSans-105"/>
      <use x="369.091797" xlink:href="#DejaVuSans-115"/>
      <use x="421.191406" xlink:href="#DejaVuSans-116"/>
      <use x="460.400391" xlink:href="#DejaVuSans-115"/>
     </g>
    </g>
    <g id="line2d_18">
     <path d="M 305.30125 166.448313 
L 325.30125 166.448313 
" style="fill:none;stroke:#ff7f0e;stroke-linecap:square;stroke-width:1.5;"/>
    </g>
    <g id="line2d_19"/>
    <g id="text_13">
     <!-- Discriminators -->
     <defs>
      <path d="M 19.671875 64.796875 
L 19.671875 8.109375 
L 31.59375 8.109375 
Q 46.6875 8.109375 53.6875 14.9375 
Q 60.6875 21.78125 60.6875 36.53125 
Q 60.6875 51.171875 53.6875 57.984375 
Q 46.6875 64.796875 31.59375 64.796875 
z
M 9.8125 72.90625 
L 30.078125 72.90625 
Q 51.265625 72.90625 61.171875 64.09375 
Q 71.09375 55.28125 71.09375 36.53125 
Q 71.09375 17.671875 61.125 8.828125 
Q 51.171875 0 30.078125 0 
L 9.8125 0 
z
" id="DejaVuSans-68"/>
      <path d="M 48.78125 52.59375 
L 48.78125 44.1875 
Q 44.96875 46.296875 41.140625 47.34375 
Q 37.3125 48.390625 33.40625 48.390625 
Q 24.65625 48.390625 19.8125 42.84375 
Q 14.984375 37.3125 14.984375 27.296875 
Q 14.984375 17.28125 19.8125 11.734375 
Q 24.65625 6.203125 33.40625 6.203125 
Q 37.3125 6.203125 41.140625 7.25 
Q 44.96875 8.296875 48.78125 10.40625 
L 48.78125 2.09375 
Q 45.015625 0.34375 40.984375 -0.53125 
Q 36.96875 -1.421875 32.421875 -1.421875 
Q 20.0625 -1.421875 12.78125 6.34375 
Q 5.515625 14.109375 5.515625 27.296875 
Q 5.515625 40.671875 12.859375 48.328125 
Q 20.21875 56 33.015625 56 
Q 37.15625 56 41.109375 55.140625 
Q 45.0625 54.296875 48.78125 52.59375 
z
" id="DejaVuSans-99"/>
      <path d="M 41.109375 46.296875 
Q 39.59375 47.171875 37.8125 47.578125 
Q 36.03125 48 33.890625 48 
Q 26.265625 48 22.1875 43.046875 
Q 18.109375 38.09375 18.109375 28.8125 
L 18.109375 0 
L 9.078125 0 
L 9.078125 54.6875 
L 18.109375 54.6875 
L 18.109375 46.1875 
Q 20.953125 51.171875 25.484375 53.578125 
Q 30.03125 56 36.53125 56 
Q 37.453125 56 38.578125 55.875 
Q 39.703125 55.765625 41.0625 55.515625 
z
" id="DejaVuSans-114"/>
      <path d="M 52 44.1875 
Q 55.375 50.25 60.0625 53.125 
Q 64.75 56 71.09375 56 
Q 79.640625 56 84.28125 50.015625 
Q 88.921875 44.046875 88.921875 33.015625 
L 88.921875 0 
L 79.890625 0 
L 79.890625 32.71875 
Q 79.890625 40.578125 77.09375 44.375 
Q 74.3125 48.1875 68.609375 48.1875 
Q 61.625 48.1875 57.5625 43.546875 
Q 53.515625 38.921875 53.515625 30.90625 
L 53.515625 0 
L 44.484375 0 
L 44.484375 32.71875 
Q 44.484375 40.625 41.703125 44.40625 
Q 38.921875 48.1875 33.109375 48.1875 
Q 26.21875 48.1875 22.15625 43.53125 
Q 18.109375 38.875 18.109375 30.90625 
L 18.109375 0 
L 9.078125 0 
L 9.078125 54.6875 
L 18.109375 54.6875 
L 18.109375 46.1875 
Q 21.1875 51.21875 25.484375 53.609375 
Q 29.78125 56 35.6875 56 
Q 41.65625 56 45.828125 52.96875 
Q 50 49.953125 52 44.1875 
z
" id="DejaVuSans-109"/>
      <path d="M 54.890625 33.015625 
L 54.890625 0 
L 45.90625 0 
L 45.90625 32.71875 
Q 45.90625 40.484375 42.875 44.328125 
Q 39.84375 48.1875 33.796875 48.1875 
Q 26.515625 48.1875 22.3125 43.546875 
Q 18.109375 38.921875 18.109375 30.90625 
L 18.109375 0 
L 9.078125 0 
L 9.078125 54.6875 
L 18.109375 54.6875 
L 18.109375 46.1875 
Q 21.34375 51.125 25.703125 53.5625 
Q 30.078125 56 35.796875 56 
Q 45.21875 56 50.046875 50.171875 
Q 54.890625 44.34375 54.890625 33.015625 
z
" id="DejaVuSans-110"/>
      <path d="M 30.609375 48.390625 
Q 23.390625 48.390625 19.1875 42.75 
Q 14.984375 37.109375 14.984375 27.296875 
Q 14.984375 17.484375 19.15625 11.84375 
Q 23.34375 6.203125 30.609375 6.203125 
Q 37.796875 6.203125 41.984375 11.859375 
Q 46.1875 17.53125 46.1875 27.296875 
Q 46.1875 37.015625 41.984375 42.703125 
Q 37.796875 48.390625 30.609375 48.390625 
z
M 30.609375 56 
Q 42.328125 56 49.015625 48.375 
Q 55.71875 40.765625 55.71875 27.296875 
Q 55.71875 13.875 49.015625 6.21875 
Q 42.328125 -1.421875 30.609375 -1.421875 
Q 18.84375 -1.421875 12.171875 6.21875 
Q 5.515625 13.875 5.515625 27.296875 
Q 5.515625 40.765625 12.171875 48.375 
Q 18.84375 56 30.609375 56 
z
" id="DejaVuSans-111"/>
     </defs>
     <g transform="translate(333.30125 169.948313)scale(0.1 -0.1)">
      <use xlink:href="#DejaVuSans-68"/>
      <use x="77.001953" xlink:href="#DejaVuSans-105"/>
      <use x="104.785156" xlink:href="#DejaVuSans-115"/>
      <use x="156.884766" xlink:href="#DejaVuSans-99"/>
      <use x="211.865234" xlink:href="#DejaVuSans-114"/>
      <use x="252.978516" xlink:href="#DejaVuSans-105"/>
      <use x="280.761719" xlink:href="#DejaVuSans-109"/>
      <use x="378.173828" xlink:href="#DejaVuSans-105"/>
      <use x="405.957031" xlink:href="#DejaVuSans-110"/>
      <use x="469.335938" xlink:href="#DejaVuSans-97"/>
      <use x="530.615234" xlink:href="#DejaVuSans-116"/>
      <use x="569.824219" xlink:href="#DejaVuSans-111"/>
      <use x="631.005859" xlink:href="#DejaVuSans-114"/>
      <use x="672.119141" xlink:href="#DejaVuSans-115"/>
     </g>
    </g>
    <g id="line2d_20">
     <path d="M 305.30125 181.126438 
L 325.30125 181.126438 
" style="fill:none;stroke:#2ca02c;stroke-linecap:square;stroke-width:1.5;"/>
    </g>
    <g id="line2d_21"/>
    <g id="text_14">
     <!-- Isocline m -->
     <defs>
      <path d="M 9.8125 72.90625 
L 19.671875 72.90625 
L 19.671875 0 
L 9.8125 0 
z
" id="DejaVuSans-73"/>
      <path d="M 56.203125 29.59375 
L 56.203125 25.203125 
L 14.890625 25.203125 
Q 15.484375 15.921875 20.484375 11.0625 
Q 25.484375 6.203125 34.421875 6.203125 
Q 39.59375 6.203125 44.453125 7.46875 
Q 49.3125 8.734375 54.109375 11.28125 
L 54.109375 2.78125 
Q 49.265625 0.734375 44.1875 -0.34375 
Q 39.109375 -1.421875 33.890625 -1.421875 
Q 20.796875 -1.421875 13.15625 6.1875 
Q 5.515625 13.8125 5.515625 26.8125 
Q 5.515625 40.234375 12.765625 48.109375 
Q 20.015625 56 32.328125 56 
Q 43.359375 56 49.78125 48.890625 
Q 56.203125 41.796875 56.203125 29.59375 
z
M 47.21875 32.234375 
Q 47.125 39.59375 43.09375 43.984375 
Q 39.0625 48.390625 32.421875 48.390625 
Q 24.90625 48.390625 20.390625 44.140625 
Q 15.875 39.890625 15.1875 32.171875 
z
" id="DejaVuSans-101"/>
      <path id="DejaVuSans-32"/>
     </defs>
     <g transform="translate(333.30125 184.626438)scale(0.1 -0.1)">
      <use xlink:href="#DejaVuSans-73"/>
      <use x="29.492188" xlink:href="#DejaVuSans-115"/>
      <use x="81.591797" xlink:href="#DejaVuSans-111"/>
      <use x="142.773438" xlink:href="#DejaVuSans-99"/>
      <use x="197.753906" xlink:href="#DejaVuSans-108"/>
      <use x="225.537109" xlink:href="#DejaVuSans-105"/>
      <use x="253.320312" xlink:href="#DejaVuSans-110"/>
      <use x="316.699219" xlink:href="#DejaVuSans-101"/>
      <use x="378.222656" xlink:href="#DejaVuSans-32"/>
      <use x="410.009766" xlink:href="#DejaVuSans-109"/>
     </g>
    </g>
    <g id="line2d_22">
     <path d="M 305.30125 195.804563 
L 325.30125 195.804563 
" style="fill:none;stroke:#d62728;stroke-linecap:square;stroke-width:1.5;"/>
    </g>
    <g id="line2d_23"/>
    <g id="text_15">
     <!-- Isocline D -->
     <g transform="translate(333.30125 199.304563)scale(0.1 -0.1)">
      <use xlink:href="#DejaVuSans-73"/>
      <use x="29.492188" xlink:href="#DejaVuSans-115"/>
      <use x="81.591797" xlink:href="#DejaVuSans-111"/>
      <use x="142.773438" xlink:href="#DejaVuSans-99"/>
      <use x="197.753906" xlink:href="#DejaVuSans-108"/>
      <use x="225.537109" xlink:href="#DejaVuSans-105"/>
      <use x="253.320312" xlink:href="#DejaVuSans-110"/>
      <use x="316.699219" xlink:href="#DejaVuSans-101"/>
      <use x="378.222656" xlink:href="#DejaVuSans-32"/>
      <use x="410.009766" xlink:href="#DejaVuSans-68"/>
     </g>
    </g>
   </g>
  </g>
 </g>
 <defs>
  <clipPath id="p4e5b8f2836">
   <rect height="266.112" width="357.12" x="57.6" y="41.472"/>
  </clipPath>
 </defs>
</svg>
