<?xml version="1.0" encoding="utf-8" standalone="no"?>
<!DOCTYPE svg PUBLIC "-//W3C//DTD SVG 1.1//EN"
  "http://www.w3.org/Graphics/SVG/1.1/DTD/svg11.dtd">
<!-- Created with matplotlib (https://matplotlib.org/) -->
<svg height="345.6pt" version="1.1" viewBox="0 0 460.8 345.6" width="460.8pt" xmlns="http://www.w3.org/2000/svg" xmlns:xlink="http://www.w3.org/1999/xlink">
 <defs>
  <style type="text/css">
*{stroke-linecap:butt;stroke-linejoin:round;}
  </style>
 </defs>
 <g id="figure_1">
  <g id="patch_1">
   <path d="M 0 345.6 
L 460.8 345.6 
L 460.8 0 
L 0 0 
z
" style="fill:#ffffff;"/>
  </g>
  <g id="axes_1">
   <g id="patch_2">
    <path d="M 57.6 307.584 
L 414.72 307.584 
L 414.72 41.472 
L 57.6 41.472 
z
" style="fill:#ffffff;"/>
   </g>
   <g id="matplotlib.axis_1">
    <g id="xtick_1">
     <g id="line2d_1">
      <defs>
       <path d="M 0 0 
L 0 3.5 
" id="m480f369432" style="stroke:#000000;stroke-width:0.8;"/>
      </defs>
      <g>
       <use style="stroke:#000000;stroke-width:0.8;" x="73.832727" xlink:href="#m480f369432" y="307.584"/>
      </g>
     </g>
     <g id="text_1">
      <!-- 0 -->
      <defs>
       <path d="M 31.78125 66.40625 
Q 24.171875 66.40625 20.328125 58.90625 
Q 16.5 51.421875 16.5 36.375 
Q 16.5 21.390625 20.328125 13.890625 
Q 24.171875 6.390625 31.78125 6.390625 
Q 39.453125 6.390625 43.28125 13.890625 
Q 47.125 21.390625 47.125 36.375 
Q 47.125 51.421875 43.28125 58.90625 
Q 39.453125 66.40625 31.78125 66.40625 
z
M 31.78125 74.21875 
Q 44.046875 74.21875 50.515625 64.515625 
Q 56.984375 54.828125 56.984375 36.375 
Q 56.984375 17.96875 50.515625 8.265625 
Q 44.046875 -1.421875 31.78125 -1.421875 
Q 19.53125 -1.421875 13.0625 8.265625 
Q 6.59375 17.96875 6.59375 36.375 
Q 6.59375 54.828125 13.0625 64.515625 
Q 19.53125 74.21875 31.78125 74.21875 
z
" id="DejaVuSans-48"/>
      </defs>
      <g transform="translate(70.651477 322.182437)scale(0.1 -0.1)">
       <use xlink:href="#DejaVuSans-48"/>
      </g>
     </g>
    </g>
    <g id="xtick_2">
     <g id="line2d_2">
      <g>
       <use style="stroke:#000000;stroke-width:0.8;" x="138.763636" xlink:href="#m480f369432" y="307.584"/>
      </g>
     </g>
     <g id="text_2">
      <!-- 5 -->
      <defs>
       <path d="M 10.796875 72.90625 
L 49.515625 72.90625 
L 49.515625 64.59375 
L 19.828125 64.59375 
L 19.828125 46.734375 
Q 21.96875 47.46875 24.109375 47.828125 
Q 26.265625 48.1875 28.421875 48.1875 
Q 40.625 48.1875 47.75 41.5 
Q 54.890625 34.8125 54.890625 23.390625 
Q 54.890625 11.625 47.5625 5.09375 
Q 40.234375 -1.421875 26.90625 -1.421875 
Q 22.3125 -1.421875 17.546875 -0.640625 
Q 12.796875 0.140625 7.71875 1.703125 
L 7.71875 11.625 
Q 12.109375 9.234375 16.796875 8.0625 
Q 21.484375 6.890625 26.703125 6.890625 
Q 35.15625 6.890625 40.078125 11.328125 
Q 45.015625 15.765625 45.015625 23.390625 
Q 45.015625 31 40.078125 35.4375 
Q 35.15625 39.890625 26.703125 39.890625 
Q 22.75 39.890625 18.8125 39.015625 
Q 14.890625 38.140625 10.796875 36.28125 
z
" id="DejaVuSans-53"/>
      </defs>
      <g transform="translate(135.582386 322.182437)scale(0.1 -0.1)">
       <use xlink:href="#DejaVuSans-53"/>
      </g>
     </g>
    </g>
    <g id="xtick_3">
     <g id="line2d_3">
      <g>
       <use style="stroke:#000000;stroke-width:0.8;" x="203.694545" xlink:href="#m480f369432" y="307.584"/>
      </g>
     </g>
     <g id="text_3">
      <!-- 10 -->
      <defs>
       <path d="M 12.40625 8.296875 
L 28.515625 8.296875 
L 28.515625 63.921875 
L 10.984375 60.40625 
L 10.984375 69.390625 
L 28.421875 72.90625 
L 38.28125 72.90625 
L 38.28125 8.296875 
L 54.390625 8.296875 
L 54.390625 0 
L 12.40625 0 
z
" id="DejaVuSans-49"/>
      </defs>
      <g transform="translate(197.332045 322.182437)scale(0.1 -0.1)">
       <use xlink:href="#DejaVuSans-49"/>
       <use x="63.623047" xlink:href="#DejaVuSans-48"/>
      </g>
     </g>
    </g>
    <g id="xtick_4">
     <g id="line2d_4">
      <g>
       <use style="stroke:#000000;stroke-width:0.8;" x="268.625455" xlink:href="#m480f369432" y="307.584"/>
      </g>
     </g>
     <g id="text_4">
      <!-- 15 -->
      <g transform="translate(262.262955 322.182437)scale(0.1 -0.1)">
       <use xlink:href="#DejaVuSans-49"/>
       <use x="63.623047" xlink:href="#DejaVuSans-53"/>
      </g>
     </g>
    </g>
    <g id="xtick_5">
     <g id="line2d_5">
      <g>
       <use style="stroke:#000000;stroke-width:0.8;" x="333.556364" xlink:href="#m480f369432" y="307.584"/>
      </g>
     </g>
     <g id="text_5">
      <!-- 20 -->
      <defs>
       <path d="M 19.1875 8.296875 
L 53.609375 8.296875 
L 53.609375 0 
L 7.328125 0 
L 7.328125 8.296875 
Q 12.9375 14.109375 22.625 23.890625 
Q 32.328125 33.6875 34.8125 36.53125 
Q 39.546875 41.84375 41.421875 45.53125 
Q 43.3125 49.21875 43.3125 52.78125 
Q 43.3125 58.59375 39.234375 62.25 
Q 35.15625 65.921875 28.609375 65.921875 
Q 23.96875 65.921875 18.8125 64.3125 
Q 13.671875 62.703125 7.8125 59.421875 
L 7.8125 69.390625 
Q 13.765625 71.78125 18.9375 73 
Q 24.125 74.21875 28.421875 74.21875 
Q 39.75 74.21875 46.484375 68.546875 
Q 53.21875 62.890625 53.21875 53.421875 
Q 53.21875 48.921875 51.53125 44.890625 
Q 49.859375 40.875 45.40625 35.40625 
Q 44.1875 33.984375 37.640625 27.21875 
Q 31.109375 20.453125 19.1875 8.296875 
z
" id="DejaVuSans-50"/>
      </defs>
      <g transform="translate(327.193864 322.182437)scale(0.1 -0.1)">
       <use xlink:href="#DejaVuSans-50"/>
       <use x="63.623047" xlink:href="#DejaVuSans-48"/>
      </g>
     </g>
    </g>
    <g id="xtick_6">
     <g id="line2d_6">
      <g>
       <use style="stroke:#000000;stroke-width:0.8;" x="398.487273" xlink:href="#m480f369432" y="307.584"/>
      </g>
     </g>
     <g id="text_6">
      <!-- 25 -->
      <g transform="translate(392.124773 322.182437)scale(0.1 -0.1)">
       <use xlink:href="#DejaVuSans-50"/>
       <use x="63.623047" xlink:href="#DejaVuSans-53"/>
      </g>
     </g>
    </g>
   </g>
   <g id="matplotlib.axis_2">
    <g id="ytick_1">
     <g id="line2d_7">
      <defs>
       <path d="M 0 0 
L -3.5 0 
" id="m69947acd96" style="stroke:#000000;stroke-width:0.8;"/>
      </defs>
      <g>
       <use style="stroke:#000000;stroke-width:0.8;" x="57.6" xlink:href="#m69947acd96" y="307.584"/>
      </g>
     </g>
     <g id="text_7">
      <!-- 0.0 -->
      <defs>
       <path d="M 10.6875 12.40625 
L 21 12.40625 
L 21 0 
L 10.6875 0 
z
" id="DejaVuSans-46"/>
      </defs>
      <g transform="translate(34.696875 311.383219)scale(0.1 -0.1)">
       <use xlink:href="#DejaVuSans-48"/>
       <use x="63.623047" xlink:href="#DejaVuSans-46"/>
       <use x="95.410156" xlink:href="#DejaVuSans-48"/>
      </g>
     </g>
    </g>
    <g id="ytick_2">
     <g id="line2d_8">
      <g>
       <use style="stroke:#000000;stroke-width:0.8;" x="57.6" xlink:href="#m69947acd96" y="254.3616"/>
      </g>
     </g>
     <g id="text_8">
      <!-- 0.2 -->
      <g transform="translate(34.696875 258.160819)scale(0.1 -0.1)">
       <use xlink:href="#DejaVuSans-48"/>
       <use x="63.623047" xlink:href="#DejaVuSans-46"/>
       <use x="95.410156" xlink:href="#DejaVuSans-50"/>
      </g>
     </g>
    </g>
    <g id="ytick_3">
     <g id="line2d_9">
      <g>
       <use style="stroke:#000000;stroke-width:0.8;" x="57.6" xlink:href="#m69947acd96" y="201.1392"/>
      </g>
     </g>
     <g id="text_9">
      <!-- 0.4 -->
      <defs>
       <path d="M 37.796875 64.3125 
L 12.890625 25.390625 
L 37.796875 25.390625 
z
M 35.203125 72.90625 
L 47.609375 72.90625 
L 47.609375 25.390625 
L 58.015625 25.390625 
L 58.015625 17.1875 
L 47.609375 17.1875 
L 47.609375 0 
L 37.796875 0 
L 37.796875 17.1875 
L 4.890625 17.1875 
L 4.890625 26.703125 
z
" id="DejaVuSans-52"/>
      </defs>
      <g transform="translate(34.696875 204.938419)scale(0.1 -0.1)">
       <use xlink:href="#DejaVuSans-48"/>
       <use x="63.623047" xlink:href="#DejaVuSans-46"/>
       <use x="95.410156" xlink:href="#DejaVuSans-52"/>
      </g>
     </g>
    </g>
    <g id="ytick_4">
     <g id="line2d_10">
      <g>
       <use style="stroke:#000000;stroke-width:0.8;" x="57.6" xlink:href="#m69947acd96" y="147.9168"/>
      </g>
     </g>
     <g id="text_10">
      <!-- 0.6 -->
      <defs>
       <path d="M 33.015625 40.375 
Q 26.375 40.375 22.484375 35.828125 
Q 18.609375 31.296875 18.609375 23.390625 
Q 18.609375 15.53125 22.484375 10.953125 
Q 26.375 6.390625 33.015625 6.390625 
Q 39.65625 6.390625 43.53125 10.953125 
Q 47.40625 15.53125 47.40625 23.390625 
Q 47.40625 31.296875 43.53125 35.828125 
Q 39.65625 40.375 33.015625 40.375 
z
M 52.59375 71.296875 
L 52.59375 62.3125 
Q 48.875 64.0625 45.09375 64.984375 
Q 41.3125 65.921875 37.59375 65.921875 
Q 27.828125 65.921875 22.671875 59.328125 
Q 17.53125 52.734375 16.796875 39.40625 
Q 19.671875 43.65625 24.015625 45.921875 
Q 28.375 48.1875 33.59375 48.1875 
Q 44.578125 48.1875 50.953125 41.515625 
Q 57.328125 34.859375 57.328125 23.390625 
Q 57.328125 12.15625 50.6875 5.359375 
Q 44.046875 -1.421875 33.015625 -1.421875 
Q 20.359375 -1.421875 13.671875 8.265625 
Q 6.984375 17.96875 6.984375 36.375 
Q 6.984375 53.65625 15.1875 63.9375 
Q 23.390625 74.21875 37.203125 74.21875 
Q 40.921875 74.21875 44.703125 73.484375 
Q 48.484375 72.75 52.59375 71.296875 
z
" id="DejaVuSans-54"/>
      </defs>
      <g transform="translate(34.696875 151.716019)scale(0.1 -0.1)">
       <use xlink:href="#DejaVuSans-48"/>
       <use x="63.623047" xlink:href="#DejaVuSans-46"/>
       <use x="95.410156" xlink:href="#DejaVuSans-54"/>
      </g>
     </g>
    </g>
    <g id="ytick_5">
     <g id="line2d_11">
      <g>
       <use style="stroke:#000000;stroke-width:0.8;" x="57.6" xlink:href="#m69947acd96" y="94.6944"/>
      </g>
     </g>
     <g id="text_11">
      <!-- 0.8 -->
      <defs>
       <path d="M 31.78125 34.625 
Q 24.75 34.625 20.71875 30.859375 
Q 16.703125 27.09375 16.703125 20.515625 
Q 16.703125 13.921875 20.71875 10.15625 
Q 24.75 6.390625 31.78125 6.390625 
Q 38.8125 6.390625 42.859375 10.171875 
Q 46.921875 13.96875 46.921875 20.515625 
Q 46.921875 27.09375 42.890625 30.859375 
Q 38.875 34.625 31.78125 34.625 
z
M 21.921875 38.8125 
Q 15.578125 40.375 12.03125 44.71875 
Q 8.5 49.078125 8.5 55.328125 
Q 8.5 64.0625 14.71875 69.140625 
Q 20.953125 74.21875 31.78125 74.21875 
Q 42.671875 74.21875 48.875 69.140625 
Q 55.078125 64.0625 55.078125 55.328125 
Q 55.078125 49.078125 51.53125 44.71875 
Q 48 40.375 41.703125 38.8125 
Q 48.828125 37.15625 52.796875 32.3125 
Q 56.78125 27.484375 56.78125 20.515625 
Q 56.78125 9.90625 50.3125 4.234375 
Q 43.84375 -1.421875 31.78125 -1.421875 
Q 19.734375 -1.421875 13.25 4.234375 
Q 6.78125 9.90625 6.78125 20.515625 
Q 6.78125 27.484375 10.78125 32.3125 
Q 14.796875 37.15625 21.921875 38.8125 
z
M 18.3125 54.390625 
Q 18.3125 48.734375 21.84375 45.5625 
Q 25.390625 42.390625 31.78125 42.390625 
Q 38.140625 42.390625 41.71875 45.5625 
Q 45.3125 48.734375 45.3125 54.390625 
Q 45.3125 60.0625 41.71875 63.234375 
Q 38.140625 66.40625 31.78125 66.40625 
Q 25.390625 66.40625 21.84375 63.234375 
Q 18.3125 60.0625 18.3125 54.390625 
z
" id="DejaVuSans-56"/>
      </defs>
      <g transform="translate(34.696875 98.493619)scale(0.1 -0.1)">
       <use xlink:href="#DejaVuSans-48"/>
       <use x="63.623047" xlink:href="#DejaVuSans-46"/>
       <use x="95.410156" xlink:href="#DejaVuSans-56"/>
      </g>
     </g>
    </g>
    <g id="ytick_6">
     <g id="line2d_12">
      <g>
       <use style="stroke:#000000;stroke-width:0.8;" x="57.6" xlink:href="#m69947acd96" y="41.472"/>
      </g>
     </g>
     <g id="text_12">
      <!-- 1.0 -->
      <g transform="translate(34.696875 45.271219)scale(0.1 -0.1)">
       <use xlink:href="#DejaVuSans-49"/>
       <use x="63.623047" xlink:href="#DejaVuSans-46"/>
       <use x="95.410156" xlink:href="#DejaVuSans-48"/>
      </g>
     </g>
    </g>
   </g>
   <g id="line2d_13">
    <path clip-path="url(#pd061870136)" d="M 73.832727 174.528 
L 75.358634 169.710659 
L 76.722211 166.109765 
L 77.955922 163.45212 
L 79.072756 161.547746 
L 80.092192 160.226145 
L 81.027216 159.360109 
L 81.897307 158.84639 
L 82.715453 158.614332 
L 83.514119 158.616035 
L 84.325772 158.841542 
L 85.182877 159.315683 
L 86.117901 160.097602 
L 87.14383 161.257034 
L 88.286637 162.896908 
L 89.572294 165.147215 
L 91.026776 168.16174 
L 92.682547 172.127165 
L 94.604541 177.333488 
L 96.903141 184.234863 
L 99.864049 193.877089 
L 105.915731 214.574041 
L 110.090872 228.382822 
L 113.207618 237.94279 
L 115.947757 245.649793 
L 118.47362 252.10622 
L 120.850139 257.585828 
L 123.122766 262.280536 
L 125.317475 266.314586 
L 127.447251 269.772688 
L 129.518589 272.720209 
L 131.53798 275.215449 
L 133.511919 277.308789 
L 135.446899 279.042442 
L 137.336426 280.441878 
L 139.180501 281.535567 
L 140.979123 282.347542 
L 142.732293 282.897592 
L 144.433517 283.200849 
L 146.089288 283.272094 
L 147.7061 283.119518 
L 149.283953 282.747037 
L 150.829339 282.15333 
L 152.355246 281.327088 
L 153.868167 280.251519 
L 155.374594 278.902734 
L 156.874528 277.256868 
L 158.380955 275.268822 
L 159.900369 272.889314 
L 161.445755 270.0461 
L 163.017115 266.678307 
L 164.627433 262.68891 
L 166.296191 257.944269 
L 168.042867 252.287112 
L 169.899929 245.495167 
L 171.9388 237.164296 
L 174.321812 226.442612 
L 177.854124 209.378708 
L 181.782523 190.688867 
L 183.944765 181.474364 
L 185.710921 174.876661 
L 187.249815 169.949214 
L 188.626377 166.256061 
L 189.866582 163.536174 
L 190.996403 161.570281 
L 192.022332 160.209082 
L 192.963849 159.311579 
L 193.83394 158.776228 
L 194.658579 158.523603 
L 195.457246 158.508873 
L 196.268898 158.718493 
L 197.126003 159.176784 
L 198.054534 159.936283 
L 199.07397 161.069194 
L 200.210283 162.678255 
L 201.482954 164.881249 
L 202.924449 167.840457 
L 204.567234 171.743528 
L 206.469748 176.863618 
L 208.735882 183.632279 
L 211.631859 193.028354 
L 216.845915 210.866319 
L 221.547007 226.60307 
L 224.754658 236.576771 
L 227.540249 244.531359 
L 230.092085 251.162414 
L 232.488084 256.785147 
L 234.780191 261.608862 
L 236.987886 265.746636 
L 239.124155 269.287848 
L 241.201986 272.311057 
L 243.234364 274.88278 
L 245.22129 277.044294 
L 247.162763 278.833374 
L 249.058783 280.283645 
L 250.909351 281.424301 
L 252.714466 282.280085 
L 254.474129 282.871456 
L 256.181846 283.214012 
L 257.844111 283.323225 
L 259.467416 283.207907 
L 261.051762 282.872378 
L 262.603642 282.315811 
L 264.129548 281.531391 
L 265.642469 280.501157 
L 267.148896 279.201931 
L 268.64883 277.610344 
L 270.155257 275.68224 
L 271.674671 273.369035 
L 273.213564 270.611956 
L 274.778431 267.341683 
L 276.382256 263.462022 
L 278.038027 258.859128 
L 279.765224 253.382749 
L 281.596312 246.816638 
L 283.596224 238.787307 
L 285.894825 228.593882 
L 289.018064 213.628463 
L 293.894473 190.291643 
L 296.037235 181.179802 
L 297.796898 174.625209 
L 299.329298 169.736349 
L 300.699368 166.075985 
L 301.939573 163.370052 
L 303.0629 161.427614 
L 304.088829 160.076786 
L 305.030346 159.189121 
L 305.900438 158.663038 
L 306.718584 158.420245 
L 307.51725 158.412308 
L 308.328902 158.628863 
L 309.186007 159.094469 
L 310.114538 159.861837 
L 311.140467 161.011507 
L 312.283274 162.642141 
L 313.562438 164.871708 
L 315.010426 167.862623 
L 316.659705 171.802336 
L 318.568711 176.963578 
L 320.847832 183.79735 
L 323.776275 193.329039 
L 329.295512 212.240615 
L 333.775834 227.19579 
L 336.951019 237.035498 
L 339.717132 244.904034 
L 342.255981 251.4739 
L 344.645486 257.056399 
L 346.9311 261.843575 
L 349.132302 265.9487 
L 351.268571 269.471148 
L 353.346402 272.47671 
L 355.372287 275.024294 
L 357.352719 277.164976 
L 359.294192 278.941694 
L 361.190213 280.380412 
L 363.040781 281.510216 
L 364.845896 282.355725 
L 366.605559 282.937261 
L 368.313276 283.27032 
L 369.97554 283.37019 
L 371.598846 283.245504 
L 373.183191 282.90044 
L 374.735071 282.333986 
L 376.260978 281.539138 
L 377.773898 280.497682 
L 379.280326 279.186212 
L 380.78026 277.581167 
L 382.286687 275.638073 
L 383.806101 273.308061 
L 385.344994 270.532069 
L 386.90986 267.240507 
L 388.513686 263.336874 
L 390.169457 258.707112 
L 391.896654 253.20086 
L 393.734235 246.577143 
L 395.74064 238.481912 
L 398.052227 228.185673 
L 398.487273 226.153355 
L 398.487273 226.153355 
" style="fill:none;stroke:#1f77b4;stroke-linecap:square;stroke-width:1.5;"/>
   </g>
   <g id="line2d_14">
    <path clip-path="url(#pd061870136)" d="M 73.832727 174.528 
L 75.891078 185.650741 
L 78.923412 203.417774 
L 83.169979 228.111247 
L 85.416633 239.831396 
L 87.351613 248.786307 
L 89.130755 255.999153 
L 90.8125 261.915039 
L 92.429312 266.812927 
L 94.007164 270.901528 
L 95.552551 274.305242 
L 97.084951 277.154792 
L 98.604365 279.521581 
L 100.123778 281.485047 
L 101.643192 283.092786 
L 103.175592 284.396005 
L 104.720978 285.42302 
L 106.292338 286.202862 
L 107.88967 286.748641 
L 109.512975 287.069561 
L 111.168747 287.170644 
L 112.856984 287.050062 
L 114.571194 286.703203 
L 116.304884 286.124034 
L 118.058054 285.301538 
L 119.82421 284.224149 
L 121.596859 282.879285 
L 123.382495 281.241099 
L 125.174624 279.290661 
L 126.979739 276.992384 
L 128.804334 274.302641 
L 130.648409 271.181331 
L 132.52495 267.559982 
L 134.446943 263.356545 
L 136.420882 258.492709 
L 138.466247 252.849154 
L 140.615503 246.250956 
L 142.914103 238.456008 
L 145.446459 229.054294 
L 148.413861 217.138621 
L 152.822758 198.384457 
L 157.666701 178.039001 
L 160.309442 167.891245 
L 162.452204 160.50891 
L 164.289786 154.941635 
L 165.906598 150.721946 
L 167.3416 147.569876 
L 168.620764 145.270683 
L 169.763571 143.651065 
L 170.783007 142.571223 
L 171.705044 141.904377 
L 172.542669 141.563485 
L 173.321856 141.480294 
L 174.081563 141.622622 
L 174.854256 141.999738 
L 175.659415 142.648266 
L 176.523014 143.640669 
L 177.458038 145.069149 
L 178.47098 147.039934 
L 179.574828 149.695713 
L 180.776073 153.190806 
L 182.087704 157.719784 
L 183.535692 163.553762 
L 185.158997 171.057226 
L 187.061511 180.959514 
L 189.548415 195.182873 
L 195.931251 232.221028 
L 198.048041 242.886536 
L 199.924581 251.237017 
L 201.664765 257.998454 
L 203.320536 263.567486 
L 204.924361 268.202659 
L 206.489228 272.063185 
L 208.028121 275.283739 
L 209.554028 277.973947 
L 211.073442 280.211753 
L 212.592855 282.061325 
L 214.118762 283.574258 
L 215.657655 284.790957 
L 217.209535 285.738507 
L 218.787388 286.444019 
L 220.391213 286.919405 
L 222.027505 287.173169 
L 223.696263 287.206472 
L 225.390993 287.017323 
L 227.111697 286.600479 
L 228.85188 285.948652 
L 230.60505 285.053064 
L 232.371206 283.899024 
L 234.150348 282.467211 
L 235.935984 280.740688 
L 237.734606 278.687051 
L 239.546215 276.27494 
L 241.377303 273.459299 
L 243.234364 270.187037 
L 245.123891 266.397294 
L 247.058871 262.006748 
L 249.05229 256.919712 
L 251.13012 250.991865 
L 253.318336 244.058877 
L 255.675375 235.829529 
L 258.305129 225.809547 
L 261.493301 212.733442 
L 271.609739 170.529151 
L 273.86938 162.456961 
L 275.791373 156.382139 
L 277.473117 151.774639 
L 278.960065 148.320899 
L 280.284682 145.779972 
L 281.466448 143.969939 
L 282.524843 142.735837 
L 283.472853 141.955778 
L 284.329958 141.525816 
L 285.122131 141.368923 
L 285.881838 141.442045 
L 286.641545 141.740063 
L 287.433718 142.296451 
L 288.277837 143.171988 
L 289.186887 144.448451 
L 290.173857 146.233957 
L 291.245238 148.650606 
L 292.414018 151.859667 
L 293.686689 156.030586 
L 295.082732 161.396652 
L 296.641105 168.306271 
L 298.433234 177.311694 
L 300.653915 189.685057 
L 309.237953 238.789709 
L 311.192413 247.9771 
L 312.978048 255.33909 
L 314.666286 261.384545 
L 316.289591 266.393272 
L 317.867444 270.560141 
L 319.419323 274.045226 
L 320.951723 276.951927 
L 322.471137 279.368335 
L 323.990551 281.375245 
L 325.509964 283.021153 
L 327.042365 284.358423 
L 328.587751 285.416127 
L 330.152617 286.221417 
L 331.74995 286.794649 
L 333.373255 287.141777 
L 335.029026 287.268532 
L 336.717264 287.173669 
L 338.431474 286.853057 
L 340.165164 286.301123 
L 341.918333 285.507386 
L 343.684489 284.460676 
L 345.457139 283.14874 
L 347.236281 281.552611 
L 349.02841 279.641976 
L 350.833525 277.386952 
L 352.651627 274.754324 
L 354.495702 271.685317 
L 356.36575 268.133545 
L 358.274756 264.022105 
L 360.242202 259.244593 
L 362.281074 253.694357 
L 364.417343 247.216138 
L 366.689971 239.594496 
L 369.176874 230.451842 
L 372.059864 218.966216 
L 376.046702 202.070862 
L 381.793202 177.798619 
L 384.42945 167.662765 
L 386.565719 160.29367 
L 388.403301 154.719698 
L 390.020113 150.495834 
L 391.455115 147.341395 
L 392.734279 145.041142 
L 393.877086 143.42142 
L 394.896522 142.342173 
L 395.812066 141.68007 
L 396.649691 141.338692 
L 397.428878 141.255439 
L 398.188585 141.39809 
L 398.487273 141.515998 
L 398.487273 141.515998 
" style="fill:none;stroke:#ff7f0e;stroke-linecap:square;stroke-width:1.5;"/>
   </g>
   <g id="line2d_15">
    <path clip-path="url(#pd061870136)" d="M 73.832727 231.552 
L 398.487273 231.552 
L 398.487273 231.552 
" style="fill:none;stroke:#2ca02c;stroke-linecap:square;stroke-width:1.5;"/>
   </g>
   <g id="line2d_16">
    <path clip-path="url(#pd061870136)" d="M 73.832727 227.7504 
L 398.487273 227.7504 
L 398.487273 227.7504 
" style="fill:none;stroke:#d62728;stroke-linecap:square;stroke-width:1.5;"/>
   </g>
   <g id="patch_3">
    <path d="M 57.6 307.584 
L 57.6 41.472 
" style="fill:none;stroke:#000000;stroke-linecap:square;stroke-linejoin:miter;stroke-width:0.8;"/>
   </g>
   <g id="patch_4">
    <path d="M 414.72 307.584 
L 414.72 41.472 
" style="fill:none;stroke:#000000;stroke-linecap:square;stroke-linejoin:miter;stroke-width:0.8;"/>
   </g>
   <g id="patch_5">
    <path d="M 57.6 307.584 
L 414.72 307.584 
" style="fill:none;stroke:#000000;stroke-linecap:square;stroke-linejoin:miter;stroke-width:0.8;"/>
   </g>
   <g id="patch_6">
    <path d="M 57.6 41.472 
L 414.72 41.472 
" style="fill:none;stroke:#000000;stroke-linecap:square;stroke-linejoin:miter;stroke-width:0.8;"/>
   </g>
   <g id="legend_1">
    <g id="patch_7">
     <path d="M 303.30125 108.1845 
L 407.72 108.1845 
Q 409.72 108.1845 409.72 106.1845 
L 409.72 48.472 
Q 409.72 46.472 407.72 46.472 
L 303.30125 46.472 
Q 301.30125 46.472 301.30125 48.472 
L 301.30125 106.1845 
Q 301.30125 108.1845 303.30125 108.1845 
z
" style="fill:#ffffff;opacity:0.8;stroke:#cccccc;stroke-linejoin:miter;"/>
    </g>
    <g id="line2d_17">
     <path d="M 305.30125 54.570438 
L 325.30125 54.570438 
" style="fill:none;stroke:#1f77b4;stroke-linecap:square;stroke-width:1.5;"/>
    </g>
    <g id="line2d_18"/>
    <g id="text_13">
     <!-- Mutualists -->
     <defs>
      <path d="M 9.8125 72.90625 
L 24.515625 72.90625 
L 43.109375 23.296875 
L 61.8125 72.90625 
L 76.515625 72.90625 
L 76.515625 0 
L 66.890625 0 
L 66.890625 64.015625 
L 48.09375 14.015625 
L 38.1875 14.015625 
L 19.390625 64.015625 
L 19.390625 0 
L 9.8125 0 
z
" id="DejaVuSans-77"/>
      <path d="M 8.5 21.578125 
L 8.5 54.6875 
L 17.484375 54.6875 
L 17.484375 21.921875 
Q 17.484375 14.15625 20.5 10.265625 
Q 23.53125 6.390625 29.59375 6.390625 
Q 36.859375 6.390625 41.078125 11.03125 
Q 45.3125 15.671875 45.3125 23.6875 
L 45.3125 54.6875 
L 54.296875 54.6875 
L 54.296875 0 
L 45.3125 0 
L 45.3125 8.40625 
Q 42.046875 3.421875 37.71875 1 
Q 33.40625 -1.421875 27.6875 -1.421875 
Q 18.265625 -1.421875 13.375 4.4375 
Q 8.5 10.296875 8.5 21.578125 
z
M 31.109375 56 
z
" id="DejaVuSans-117"/>
      <path d="M 18.3125 70.21875 
L 18.3125 54.6875 
L 36.8125 54.6875 
L 36.8125 47.703125 
L 18.3125 47.703125 
L 18.3125 18.015625 
Q 18.3125 11.328125 20.140625 9.421875 
Q 21.96875 7.515625 27.59375 7.515625 
L 36.8125 7.515625 
L 36.8125 0 
L 27.59375 0 
Q 17.1875 0 13.234375 3.875 
Q 9.28125 7.765625 9.28125 18.015625 
L 9.28125 47.703125 
L 2.6875 47.703125 
L 2.6875 54.6875 
L 9.28125 54.6875 
L 9.28125 70.21875 
z
" id="DejaVuSans-116"/>
      <path d="M 34.28125 27.484375 
Q 23.390625 27.484375 19.1875 25 
Q 14.984375 22.515625 14.984375 16.5 
Q 14.984375 11.71875 18.140625 8.90625 
Q 21.296875 6.109375 26.703125 6.109375 
Q 34.1875 6.109375 38.703125 11.40625 
Q 43.21875 16.703125 43.21875 25.484375 
L 43.21875 27.484375 
z
M 52.203125 31.203125 
L 52.203125 0 
L 43.21875 0 
L 43.21875 8.296875 
Q 40.140625 3.328125 35.546875 0.953125 
Q 30.953125 -1.421875 24.3125 -1.421875 
Q 15.921875 -1.421875 10.953125 3.296875 
Q 6 8.015625 6 15.921875 
Q 6 25.140625 12.171875 29.828125 
Q 18.359375 34.515625 30.609375 34.515625 
L 43.21875 34.515625 
L 43.21875 35.40625 
Q 43.21875 41.609375 39.140625 45 
Q 35.0625 48.390625 27.6875 48.390625 
Q 23 48.390625 18.546875 47.265625 
Q 14.109375 46.140625 10.015625 43.890625 
L 10.015625 52.203125 
Q 14.9375 54.109375 19.578125 55.046875 
Q 24.21875 56 28.609375 56 
Q 40.484375 56 46.34375 49.84375 
Q 52.203125 43.703125 52.203125 31.203125 
z
" id="DejaVuSans-97"/>
      <path d="M 9.421875 75.984375 
L 18.40625 75.984375 
L 18.40625 0 
L 9.421875 0 
z
" id="DejaVuSans-108"/>
      <path d="M 9.421875 54.6875 
L 18.40625 54.6875 
L 18.40625 0 
L 9.421875 0 
z
M 9.421875 75.984375 
L 18.40625 75.984375 
L 18.40625 64.59375 
L 9.421875 64.59375 
z
" id="DejaVuSans-105"/>
      <path d="M 44.28125 53.078125 
L 44.28125 44.578125 
Q 40.484375 46.53125 36.375 47.5 
Q 32.28125 48.484375 27.875 48.484375 
Q 21.1875 48.484375 17.84375 46.4375 
Q 14.5 44.390625 14.5 40.28125 
Q 14.5 37.15625 16.890625 35.375 
Q 19.28125 33.59375 26.515625 31.984375 
L 29.59375 31.296875 
Q 39.15625 29.25 43.1875 25.515625 
Q 47.21875 21.78125 47.21875 15.09375 
Q 47.21875 7.46875 41.1875 3.015625 
Q 35.15625 -1.421875 24.609375 -1.421875 
Q 20.21875 -1.421875 15.453125 -0.5625 
Q 10.6875 0.296875 5.421875 2 
L 5.421875 11.28125 
Q 10.40625 8.6875 15.234375 7.390625 
Q 20.0625 6.109375 24.8125 6.109375 
Q 31.15625 6.109375 34.5625 8.28125 
Q 37.984375 10.453125 37.984375 14.40625 
Q 37.984375 18.0625 35.515625 20.015625 
Q 33.0625 21.96875 24.703125 23.78125 
L 21.578125 24.515625 
Q 13.234375 26.265625 9.515625 29.90625 
Q 5.8125 33.546875 5.8125 39.890625 
Q 5.8125 47.609375 11.28125 51.796875 
Q 16.75 56 26.8125 56 
Q 31.78125 56 36.171875 55.265625 
Q 40.578125 54.546875 44.28125 53.078125 
z
" id="DejaVuSans-115"/>
     </defs>
     <g transform="translate(333.30125 58.070438)scale(0.1 -0.1)">
      <use xlink:href="#DejaVuSans-77"/>
      <use x="86.279297" xlink:href="#DejaVuSans-117"/>
      <use x="149.658203" xlink:href="#DejaVuSans-116"/>
      <use x="188.867188" xlink:href="#DejaVuSans-117"/>
      <use x="252.246094" xlink:href="#DejaVuSans-97"/>
      <use x="313.525391" xlink:href="#DejaVuSans-108"/>
      <use x="341.308594" xlink:href="#DejaVuSans-105"/>
      <use x="369.091797" xlink:href="#DejaVuSans-115"/>
      <use x="421.191406" xlink:href="#DejaVuSans-116"/>
      <use x="460.400391" xlink:href="#DejaVuSans-115"/>
     </g>
    </g>
    <g id="line2d_19">
     <path d="M 305.30125 69.248563 
L 325.30125 69.248563 
" style="fill:none;stroke:#ff7f0e;stroke-linecap:square;stroke-width:1.5;"/>
    </g>
    <g id="line2d_20"/>
    <g id="text_14">
     <!-- Discriminators -->
     <defs>
      <path d="M 19.671875 64.796875 
L 19.671875 8.109375 
L 31.59375 8.109375 
Q 46.6875 8.109375 53.6875 14.9375 
Q 60.6875 21.78125 60.6875 36.53125 
Q 60.6875 51.171875 53.6875 57.984375 
Q 46.6875 64.796875 31.59375 64.796875 
z
M 9.8125 72.90625 
L 30.078125 72.90625 
Q 51.265625 72.90625 61.171875 64.09375 
Q 71.09375 55.28125 71.09375 36.53125 
Q 71.09375 17.671875 61.125 8.828125 
Q 51.171875 0 30.078125 0 
L 9.8125 0 
z
" id="DejaVuSans-68"/>
      <path d="M 48.78125 52.59375 
L 48.78125 44.1875 
Q 44.96875 46.296875 41.140625 47.34375 
Q 37.3125 48.390625 33.40625 48.390625 
Q 24.65625 48.390625 19.8125 42.84375 
Q 14.984375 37.3125 14.984375 27.296875 
Q 14.984375 17.28125 19.8125 11.734375 
Q 24.65625 6.203125 33.40625 6.203125 
Q 37.3125 6.203125 41.140625 7.25 
Q 44.96875 8.296875 48.78125 10.40625 
L 48.78125 2.09375 
Q 45.015625 0.34375 40.984375 -0.53125 
Q 36.96875 -1.421875 32.421875 -1.421875 
Q 20.0625 -1.421875 12.78125 6.34375 
Q 5.515625 14.109375 5.515625 27.296875 
Q 5.515625 40.671875 12.859375 48.328125 
Q 20.21875 56 33.015625 56 
Q 37.15625 56 41.109375 55.140625 
Q 45.0625 54.296875 48.78125 52.59375 
z
" id="DejaVuSans-99"/>
      <path d="M 41.109375 46.296875 
Q 39.59375 47.171875 37.8125 47.578125 
Q 36.03125 48 33.890625 48 
Q 26.265625 48 22.1875 43.046875 
Q 18.109375 38.09375 18.109375 28.8125 
L 18.109375 0 
L 9.078125 0 
L 9.078125 54.6875 
L 18.109375 54.6875 
L 18.109375 46.1875 
Q 20.953125 51.171875 25.484375 53.578125 
Q 30.03125 56 36.53125 56 
Q 37.453125 56 38.578125 55.875 
Q 39.703125 55.765625 41.0625 55.515625 
z
" id="DejaVuSans-114"/>
      <path d="M 52 44.1875 
Q 55.375 50.25 60.0625 53.125 
Q 64.75 56 71.09375 56 
Q 79.640625 56 84.28125 50.015625 
Q 88.921875 44.046875 88.921875 33.015625 
L 88.921875 0 
L 79.890625 0 
L 79.890625 32.71875 
Q 79.890625 40.578125 77.09375 44.375 
Q 74.3125 48.1875 68.609375 48.1875 
Q 61.625 48.1875 57.5625 43.546875 
Q 53.515625 38.921875 53.515625 30.90625 
L 53.515625 0 
L 44.484375 0 
L 44.484375 32.71875 
Q 44.484375 40.625 41.703125 44.40625 
Q 38.921875 48.1875 33.109375 48.1875 
Q 26.21875 48.1875 22.15625 43.53125 
Q 18.109375 38.875 18.109375 30.90625 
L 18.109375 0 
L 9.078125 0 
L 9.078125 54.6875 
L 18.109375 54.6875 
L 18.109375 46.1875 
Q 21.1875 51.21875 25.484375 53.609375 
Q 29.78125 56 35.6875 56 
Q 41.65625 56 45.828125 52.96875 
Q 50 49.953125 52 44.1875 
z
" id="DejaVuSans-109"/>
      <path d="M 54.890625 33.015625 
L 54.890625 0 
L 45.90625 0 
L 45.90625 32.71875 
Q 45.90625 40.484375 42.875 44.328125 
Q 39.84375 48.1875 33.796875 48.1875 
Q 26.515625 48.1875 22.3125 43.546875 
Q 18.109375 38.921875 18.109375 30.90625 
L 18.109375 0 
L 9.078125 0 
L 9.078125 54.6875 
L 18.109375 54.6875 
L 18.109375 46.1875 
Q 21.34375 51.125 25.703125 53.5625 
Q 30.078125 56 35.796875 56 
Q 45.21875 56 50.046875 50.171875 
Q 54.890625 44.34375 54.890625 33.015625 
z
" id="DejaVuSans-110"/>
      <path d="M 30.609375 48.390625 
Q 23.390625 48.390625 19.1875 42.75 
Q 14.984375 37.109375 14.984375 27.296875 
Q 14.984375 17.484375 19.15625 11.84375 
Q 23.34375 6.203125 30.609375 6.203125 
Q 37.796875 6.203125 41.984375 11.859375 
Q 46.1875 17.53125 46.1875 27.296875 
Q 46.1875 37.015625 41.984375 42.703125 
Q 37.796875 48.390625 30.609375 48.390625 
z
M 30.609375 56 
Q 42.328125 56 49.015625 48.375 
Q 55.71875 40.765625 55.71875 27.296875 
Q 55.71875 13.875 49.015625 6.21875 
Q 42.328125 -1.421875 30.609375 -1.421875 
Q 18.84375 -1.421875 12.171875 6.21875 
Q 5.515625 13.875 5.515625 27.296875 
Q 5.515625 40.765625 12.171875 48.375 
Q 18.84375 56 30.609375 56 
z
" id="DejaVuSans-111"/>
     </defs>
     <g transform="translate(333.30125 72.748563)scale(0.1 -0.1)">
      <use xlink:href="#DejaVuSans-68"/>
      <use x="77.001953" xlink:href="#DejaVuSans-105"/>
      <use x="104.785156" xlink:href="#DejaVuSans-115"/>
      <use x="156.884766" xlink:href="#DejaVuSans-99"/>
      <use x="211.865234" xlink:href="#DejaVuSans-114"/>
      <use x="252.978516" xlink:href="#DejaVuSans-105"/>
      <use x="280.761719" xlink:href="#DejaVuSans-109"/>
      <use x="378.173828" xlink:href="#DejaVuSans-105"/>
      <use x="405.957031" xlink:href="#DejaVuSans-110"/>
      <use x="469.335938" xlink:href="#DejaVuSans-97"/>
      <use x="530.615234" xlink:href="#DejaVuSans-116"/>
      <use x="569.824219" xlink:href="#DejaVuSans-111"/>
      <use x="631.005859" xlink:href="#DejaVuSans-114"/>
      <use x="672.119141" xlink:href="#DejaVuSans-115"/>
     </g>
    </g>
    <g id="line2d_21">
     <path d="M 305.30125 83.926688 
L 325.30125 83.926688 
" style="fill:none;stroke:#2ca02c;stroke-linecap:square;stroke-width:1.5;"/>
    </g>
    <g id="line2d_22"/>
    <g id="text_15">
     <!-- Isocline m -->
     <defs>
      <path d="M 9.8125 72.90625 
L 19.671875 72.90625 
L 19.671875 0 
L 9.8125 0 
z
" id="DejaVuSans-73"/>
      <path d="M 56.203125 29.59375 
L 56.203125 25.203125 
L 14.890625 25.203125 
Q 15.484375 15.921875 20.484375 11.0625 
Q 25.484375 6.203125 34.421875 6.203125 
Q 39.59375 6.203125 44.453125 7.46875 
Q 49.3125 8.734375 54.109375 11.28125 
L 54.109375 2.78125 
Q 49.265625 0.734375 44.1875 -0.34375 
Q 39.109375 -1.421875 33.890625 -1.421875 
Q 20.796875 -1.421875 13.15625 6.1875 
Q 5.515625 13.8125 5.515625 26.8125 
Q 5.515625 40.234375 12.765625 48.109375 
Q 20.015625 56 32.328125 56 
Q 43.359375 56 49.78125 48.890625 
Q 56.203125 41.796875 56.203125 29.59375 
z
M 47.21875 32.234375 
Q 47.125 39.59375 43.09375 43.984375 
Q 39.0625 48.390625 32.421875 48.390625 
Q 24.90625 48.390625 20.390625 44.140625 
Q 15.875 39.890625 15.1875 32.171875 
z
" id="DejaVuSans-101"/>
      <path id="DejaVuSans-32"/>
     </defs>
     <g transform="translate(333.30125 87.426688)scale(0.1 -0.1)">
      <use xlink:href="#DejaVuSans-73"/>
      <use x="29.492188" xlink:href="#DejaVuSans-115"/>
      <use x="81.591797" xlink:href="#DejaVuSans-111"/>
      <use x="142.773438" xlink:href="#DejaVuSans-99"/>
      <use x="197.753906" xlink:href="#DejaVuSans-108"/>
      <use x="225.537109" xlink:href="#DejaVuSans-105"/>
      <use x="253.320312" xlink:href="#DejaVuSans-110"/>
      <use x="316.699219" xlink:href="#DejaVuSans-101"/>
      <use x="378.222656" xlink:href="#DejaVuSans-32"/>
      <use x="410.009766" xlink:href="#DejaVuSans-109"/>
     </g>
    </g>
    <g id="line2d_23">
     <path d="M 305.30125 98.604813 
L 325.30125 98.604813 
" style="fill:none;stroke:#d62728;stroke-linecap:square;stroke-width:1.5;"/>
    </g>
    <g id="line2d_24"/>
    <g id="text_16">
     <!-- Isocline D -->
     <g transform="translate(333.30125 102.104813)scale(0.1 -0.1)">
      <use xlink:href="#DejaVuSans-73"/>
      <use x="29.492188" xlink:href="#DejaVuSans-115"/>
      <use x="81.591797" xlink:href="#DejaVuSans-111"/>
      <use x="142.773438" xlink:href="#DejaVuSans-99"/>
      <use x="197.753906" xlink:href="#DejaVuSans-108"/>
      <use x="225.537109" xlink:href="#DejaVuSans-105"/>
      <use x="253.320312" xlink:href="#DejaVuSans-110"/>
      <use x="316.699219" xlink:href="#DejaVuSans-101"/>
      <use x="378.222656" xlink:href="#DejaVuSans-32"/>
      <use x="410.009766" xlink:href="#DejaVuSans-68"/>
     </g>
    </g>
   </g>
  </g>
 </g>
 <defs>
  <clipPath id="pd061870136">
   <rect height="266.112" width="357.12" x="57.6" y="41.472"/>
  </clipPath>
 </defs>
</svg>
